<?xml version="1.0" encoding="utf-8"?>
<!-- Generator: Adobe Illustrator 26.4.1, SVG Export Plug-In . SVG Version: 6.00 Build 0)  -->
<svg version="1.1" id="Layer_1" xmlns="http://www.w3.org/2000/svg" xmlns:xlink="http://www.w3.org/1999/xlink" x="0px" y="0px"
	 viewBox="0 0 1000 1000" style="enable-background:new 0 0 1000 1000;" xml:space="preserve">
<style type="text/css">
	.st0{opacity:0.25;fill:#FCEE21;}
	.st1{opacity:0.25;fill:#FBB03B;}
	.st2{opacity:0.25;fill:#F7931E;}
	.st3{opacity:0.25;fill:#F15A24;}
	.st4{opacity:0.25;fill:#ED1C24;}
	.st5{opacity:0.25;fill:#ED1E79;}
	.st6{opacity:0.25;fill:#D4145A;}
	.st7{opacity:0.25;fill:#9E005D;}
	.st8{opacity:0.25;fill:#93278F;}
	.st9{opacity:0.25;fill:#662D91;}
	.st10{opacity:0.25;fill:#1B1464;}
	.st11{opacity:0.25;fill:#2E3192;}
	.st12{opacity:0.25;fill:#0071BC;}
	.st13{opacity:0.25;fill:#29ABE2;}
	.st14{opacity:0.25;fill:#00A99D;}
	.st15{opacity:0.25;fill:#22B573;}
	.st16{opacity:0.25;fill:#006837;}
	.st17{opacity:0.25;fill:#009245;}
	.st18{opacity:0.25;fill:#39B54A;}
	.st19{opacity:0.25;fill:#8CC63F;}
	.st20{opacity:0.25;fill:#D9E021;}
	.st21{opacity:0.25;fill:#C1272D;}
</style>
<g>
	<path class="st0" d="M502.32,402.11c43.42-23.91,71.74-66.99,70.07-115.17c-1.66-48.18-32.87-89.2-77.84-110.07
		c-43.42,23.91-71.74,66.99-70.07,115.17C426.14,340.22,457.35,381.25,502.32,402.11z"/>
	<path class="st1" d="M500.99,408.65C539.59,377.56,560,330.22,550,283.06c-10-47.16-47.86-82.14-95.77-94.88
		c-38.61,31.09-59.01,78.43-49.01,125.58C415.22,360.93,453.08,395.91,500.99,408.65z"/>
	<path class="st2" d="M500.81,415.32c32.62-37.32,44.5-87.48,26.46-132.19c-18.04-44.71-61.4-72.58-110.79-76.81
		c-32.62,37.32-44.5,87.48-26.46,132.19C408.06,383.21,451.42,411.08,500.81,415.32z"/>
	<path class="st3" d="M501.79,421.91c25.65-42.42,28.63-93.88,3.1-134.77c-25.53-40.89-73.07-60.81-122.44-56.4
		c-25.65,42.42-28.63,93.88-3.1,134.77C404.87,406.4,452.42,426.32,501.79,421.91z"/>
	<path class="st4" d="M503.9,428.24c17.89-46.23,11.89-97.43-20.35-133.27c-32.24-35.84-82.52-47.2-130.38-34.28
		c-17.89,46.23-11.89,97.43,20.35,133.27S456.04,441.16,503.9,428.24z"/>
	<path class="st5" d="M507.08,434.1c9.59-48.63-5.2-98.01-43.18-127.71c-37.97-29.7-89.46-32.15-134.35-11.12
		c-9.59,48.63,5.2,98.01,43.18,127.71C410.71,452.68,462.19,455.13,507.08,434.1z"/>
	<path class="st5" d="M511.23,439.32c1-49.56-22.14-95.62-64.7-118.27c-42.55-22.65-93.69-16.13-134.24,12.37
		c-1,49.56,22.14,95.62,64.7,118.27C419.55,474.35,470.68,467.83,511.23,439.32z"/>
	<path class="st6" d="M516.22,443.75c-7.62-48.98-38.41-90.32-84.25-105.24c-45.84-14.92-95.06,0.38-130.05,35.5
		c7.62,48.98,38.41,90.32,84.25,105.24C432.01,494.16,481.24,478.86,516.22,443.75z"/>
	<path class="st7" d="M521.91,447.23c-16.01-46.91-53.51-82.28-101.25-89.01c-47.73-6.73-93.55,16.88-121.91,57.54
		c16.01,46.91,53.51,82.28,101.25,89.01C447.73,511.51,493.55,487.89,521.91,447.23z"/>
	<path class="st8" d="M528.11,449.68c-23.91-43.42-66.99-71.74-115.17-70.07c-48.18,1.66-89.2,32.87-110.07,77.84
		c23.91,43.42,66.99,71.74,115.17,70.07C466.22,525.86,507.25,494.65,528.11,449.68z"/>
	<path class="st9" d="M534.65,451.01C503.56,412.41,456.22,392,409.06,402c-47.16,10-82.14,47.86-94.88,95.77
		c31.09,38.61,78.43,59.01,125.58,49.01C486.93,536.78,521.91,498.92,534.65,451.01z"/>
	<path class="st10" d="M541.32,451.19c-37.32-32.62-87.48-44.5-132.19-26.46c-44.71,18.04-72.58,61.4-76.81,110.79
		c37.32,32.62,87.48,44.5,132.19,26.46C509.21,543.94,537.08,500.58,541.32,451.19z"/>
	<path class="st11" d="M547.91,450.21c-42.42-25.65-93.88-28.63-134.77-3.1c-40.89,25.53-60.81,73.07-56.4,122.44
		c42.42,25.65,93.88,28.63,134.77,3.1C532.4,547.13,552.32,499.58,547.91,450.21z"/>
	<path class="st12" d="M554.24,448.1c-46.23-17.89-97.43-11.89-133.27,20.35c-35.84,32.24-47.2,82.52-34.28,130.38
		c46.23,17.89,97.43,11.89,133.27-20.35C555.79,546.23,567.16,495.96,554.24,448.1z"/>
	<path class="st13" d="M560.1,444.92c-48.63-9.59-98.01,5.2-127.71,43.18c-29.7,37.97-32.15,89.46-11.12,134.35
		c48.63,9.59,98.01-5.2,127.71-43.18C578.68,541.29,581.13,489.81,560.1,444.92z"/>
	<path class="st14" d="M565.32,440.77c-49.56-1-95.62,22.14-118.27,64.7c-22.65,42.55-16.13,93.69,12.37,134.24
		c49.56,1,95.62-22.14,118.27-64.7C600.35,532.45,593.83,481.32,565.32,440.77z"/>
	<path class="st15" d="M569.75,435.78c-48.98,7.62-90.32,38.41-105.24,84.25c-14.92,45.84,0.38,95.06,35.5,130.05
		c48.98-7.62,90.32-38.41,105.24-84.25C620.16,519.99,604.86,470.76,569.75,435.78z"/>
	<path class="st16" d="M573.23,430.09c-46.91,16.01-82.28,53.51-89.01,101.25c-6.73,47.73,16.88,93.55,57.54,121.91
		c46.91-16.01,82.28-53.51,89.01-101.25C637.51,504.27,613.89,458.45,573.23,430.09z"/>
	<path class="st17" d="M575.68,423.89c-43.42,23.91-71.74,66.99-70.08,115.17c1.66,48.18,32.87,89.2,77.84,110.07
		c43.42-23.91,71.74-66.99,70.07-115.17C651.86,485.78,620.65,444.75,575.68,423.89z"/>
	<path class="st18" d="M577.01,417.35C538.41,448.44,518,495.78,528,542.94c10,47.16,47.86,82.14,95.77,94.88
		c38.61-31.09,59.01-78.43,49.01-125.58C662.78,465.07,624.92,430.09,577.01,417.35z"/>
	<path class="st19" d="M577.19,410.68c-32.62,37.32-44.5,87.48-26.46,132.19c18.04,44.71,61.4,72.58,110.79,76.81
		c32.62-37.32,44.5-87.48,26.46-132.19S626.58,414.92,577.19,410.68z"/>
	<path class="st19" d="M576.21,404.09c-25.65,42.42-28.63,93.88-3.1,134.77c25.53,40.89,73.07,60.81,122.44,56.4
		c25.65-42.42,28.63-93.88,3.1-134.77C673.13,419.6,625.58,399.68,576.21,404.09z"/>
	<path class="st20" d="M574.1,397.76c-17.89,46.23-11.89,97.43,20.35,133.27c32.24,35.84,82.52,47.2,130.38,34.28
		c17.89-46.23,11.89-97.43-20.35-133.27C672.23,396.21,621.96,384.84,574.1,397.76z"/>
	<path class="st0" d="M570.92,391.9c-9.59,48.63,5.2,98.01,43.18,127.71s89.46,32.15,134.35,11.12
		c9.59-48.63-5.2-98.01-43.18-127.71C667.29,373.32,615.81,370.87,570.92,391.9z"/>
	<path class="st1" d="M566.77,386.68c-1,49.56,22.14,95.62,64.7,118.27c42.55,22.65,93.69,16.13,134.24-12.37
		c1-49.56-22.14-95.62-64.7-118.27C658.45,351.65,607.32,358.17,566.77,386.68z"/>
	<path class="st2" d="M561.78,382.25c7.62,48.98,38.41,90.32,84.25,105.24c45.84,14.92,95.06-0.38,130.05-35.5
		c-7.62-48.98-38.41-90.32-84.25-105.24C645.99,331.84,596.76,347.14,561.78,382.25z"/>
	<path class="st3" d="M556.09,378.77c16.01,46.91,53.51,82.28,101.25,89.01c47.73,6.73,93.55-16.88,121.91-57.54
		c-16.01-46.91-53.51-82.28-101.25-89.01C630.27,314.49,584.45,338.11,556.09,378.77z"/>
	<path class="st4" d="M549.89,376.32c23.91,43.42,66.99,71.74,115.17,70.07c48.18-1.66,89.2-32.87,110.07-77.84
		c-23.91-43.42-66.99-71.74-115.17-70.07C611.78,300.14,570.75,331.35,549.89,376.32z"/>
	<path class="st21" d="M543.35,374.99C574.44,413.59,621.78,434,668.94,424c47.16-10,82.14-47.86,94.88-95.77
		c-31.09-38.61-78.43-59.01-125.58-49.01C591.07,289.22,556.09,327.08,543.35,374.99z"/>
	<path class="st5" d="M536.68,374.81c37.32,32.62,87.48,44.5,132.19,26.46c44.71-18.04,72.58-61.4,76.81-110.79
		c-37.32-32.62-87.48-44.5-132.19-26.46C568.79,282.06,540.92,325.42,536.68,374.81z"/>
	<path class="st6" d="M530.09,375.79c42.42,25.65,93.88,28.63,134.77,3.1c40.89-25.53,60.81-73.07,56.4-122.44
		c-42.42-25.65-93.88-28.63-134.77-3.1C545.6,278.87,525.68,326.42,530.09,375.79z"/>
	<path class="st7" d="M523.76,377.9c46.23,17.89,97.43,11.89,133.27-20.35c35.84-32.24,47.2-82.52,34.28-130.38
		c-46.23-17.89-97.43-11.89-133.27,20.35C522.21,279.77,510.84,330.04,523.76,377.9z"/>
	<path class="st8" d="M517.9,381.08c48.63,9.59,98.01-5.2,127.71-43.18c29.7-37.97,32.15-89.46,11.12-134.35
		c-48.63-9.59-98.01,5.2-127.71,43.18C499.32,284.71,496.87,336.19,517.9,381.08z"/>
	<path class="st9" d="M512.68,385.23c49.56,1,95.62-22.14,118.27-64.7c22.65-42.55,16.13-93.69-12.37-134.24
		c-49.56-1-95.62,22.14-118.27,64.7C477.65,293.55,484.17,344.68,512.68,385.23z"/>
	<path class="st10" d="M508.25,390.22c48.98-7.62,90.32-38.41,105.24-84.25c14.92-45.84-0.38-95.06-35.5-130.05
		c-48.98,7.62-90.32,38.41-105.24,84.25C457.84,306.01,473.14,355.24,508.25,390.22z"/>
	<path class="st11" d="M504.77,395.91c46.91-16.01,82.28-53.51,89.01-101.25c6.73-47.73-16.88-93.55-57.54-121.91
		c-46.91,16.01-82.28,53.51-89.01,101.25C440.49,321.73,464.11,367.55,504.77,395.91z"/>
</g>
</svg>
