<?xml version="1.0" encoding="UTF-8"?>
<svg id="Layer_1" data-name="Layer 1" xmlns="http://www.w3.org/2000/svg" viewBox="0 0 480.5 480.5">
  <defs>
    <style>
      .cls-1 {
        fill: #39b54a;
      }

      .cls-1, .cls-2, .cls-3, .cls-4, .cls-5, .cls-6, .cls-7, .cls-8, .cls-9, .cls-10, .cls-11, .cls-12, .cls-13, .cls-14, .cls-15, .cls-16, .cls-17, .cls-18, .cls-19, .cls-20, .cls-21, .cls-22 {
        opacity: .25;
      }

      .cls-2 {
        fill: #2e3192;
      }

      .cls-3 {
        fill: #29abe2;
      }

      .cls-4 {
        fill: #1b1464;
      }

      .cls-5 {
        fill: #22b573;
      }

      .cls-6 {
        fill: #d9e021;
      }

      .cls-7 {
        fill: #c1272d;
      }

      .cls-8 {
        fill: #d4145a;
      }

      .cls-9 {
        fill: #9e005d;
      }

      .cls-10 {
        fill: #93278f;
      }

      .cls-11 {
        fill: #8cc63f;
      }

      .cls-12 {
        fill: #662d91;
      }

      .cls-13 {
        fill: #ed1c24;
      }

      .cls-14 {
        fill: #f7931e;
      }

      .cls-15 {
        fill: #fbb03b;
      }

      .cls-16 {
        fill: #fcee21;
      }

      .cls-17 {
        fill: #ed1e79;
      }

      .cls-18 {
        fill: #f15a24;
      }

      .cls-19 {
        fill: #00a99d;
      }

      .cls-20 {
        fill: #009245;
      }

      .cls-21 {
        fill: #006837;
      }

      .cls-22 {
        fill: #0071bc;
      }
    </style>
  </defs>
  <path class="cls-16" d="M203.57,229.36c43.42-23.91,71.74-66.99,70.07-115.17-1.66-48.18-32.87-89.2-77.84-110.07-43.42,23.91-71.74,66.99-70.07,115.17,1.66,48.18,32.87,89.2,77.84,110.07Z"/>
  <path class="cls-15" d="M202.24,235.9c38.61-31.09,59.01-78.43,49.01-125.58-10-47.16-47.86-82.14-95.77-94.88-38.61,31.09-59.01,78.43-49.01,125.58,10,47.16,47.86,82.14,95.77,94.88Z"/>
  <path class="cls-14" d="M202.06,242.57c32.62-37.32,44.5-87.48,26.46-132.19-18.04-44.71-61.4-72.58-110.79-76.81-32.62,37.32-44.5,87.48-26.46,132.19,18.04,44.71,61.4,72.58,110.79,76.81Z"/>
  <path class="cls-18" d="M203.04,249.16c25.65-42.42,28.63-93.88,3.1-134.77-25.53-40.89-73.07-60.81-122.44-56.4-25.65,42.42-28.63,93.88-3.1,134.77,25.53,40.89,73.07,60.81,122.44,56.4Z"/>
  <path class="cls-13" d="M205.15,255.49c17.89-46.23,11.89-97.43-20.35-133.27-32.24-35.84-82.52-47.2-130.38-34.28-17.89,46.23-11.89,97.43,20.35,133.27,32.24,35.84,82.52,47.2,130.38,34.28Z"/>
  <path class="cls-17" d="M208.33,261.35c9.59-48.63-5.2-98.01-43.18-127.71-37.97-29.7-89.46-32.15-134.35-11.12-9.59,48.63,5.2,98.01,43.18,127.71,37.97,29.7,89.46,32.15,134.35,11.12Z"/>
  <path class="cls-17" d="M212.48,266.57c1-49.56-22.14-95.62-64.7-118.27-42.55-22.65-93.69-16.13-134.24,12.37-1,49.56,22.14,95.62,64.7,118.27,42.55,22.65,93.69,16.13,134.24-12.37Z"/>
  <path class="cls-8" d="M217.47,271c-7.62-48.98-38.41-90.32-84.25-105.24-45.84-14.92-95.06,.38-130.05,35.5,7.62,48.98,38.41,90.32,84.25,105.24,45.84,14.92,95.06-.38,130.05-35.5Z"/>
  <path class="cls-9" d="M223.16,274.48c-16.01-46.91-53.51-82.28-101.25-89.01-47.73-6.73-93.55,16.88-121.91,57.54,16.01,46.91,53.51,82.28,101.25,89.01,47.73,6.73,93.55-16.88,121.91-57.54Z"/>
  <path class="cls-10" d="M229.36,276.93c-23.91-43.42-66.99-71.74-115.17-70.07-48.18,1.66-89.2,32.87-110.07,77.84,23.91,43.42,66.99,71.74,115.17,70.07,48.18-1.66,89.2-32.87,110.07-77.84Z"/>
  <path class="cls-12" d="M235.9,278.26c-31.09-38.61-78.43-59.01-125.58-49.01-47.16,10-82.14,47.86-94.88,95.77,31.09,38.61,78.43,59.01,125.58,49.01,47.16-10,82.14-47.86,94.88-95.77Z"/>
  <path class="cls-4" d="M242.57,278.44c-37.32-32.62-87.48-44.5-132.19-26.46-44.71,18.04-72.58,61.4-76.81,110.79,37.32,32.62,87.48,44.5,132.19,26.46,44.71-18.04,72.58-61.4,76.81-110.79Z"/>
  <path class="cls-2" d="M249.16,277.46c-42.42-25.65-93.88-28.63-134.77-3.1-40.89,25.53-60.81,73.07-56.4,122.44,42.42,25.65,93.88,28.63,134.77,3.1,40.89-25.53,60.81-73.07,56.4-122.44Z"/>
  <path class="cls-22" d="M255.49,275.35c-46.23-17.89-97.43-11.89-133.27,20.35-35.84,32.24-47.2,82.52-34.28,130.38,46.23,17.89,97.43,11.89,133.27-20.35,35.84-32.24,47.2-82.52,34.28-130.38Z"/>
  <path class="cls-3" d="M261.35,272.17c-48.63-9.59-98.01,5.2-127.71,43.18-29.7,37.97-32.15,89.46-11.12,134.35,48.63,9.59,98.01-5.2,127.71-43.18,29.7-37.97,32.15-89.46,11.12-134.35Z"/>
  <path class="cls-19" d="M266.57,268.02c-49.56-1-95.62,22.14-118.27,64.7-22.65,42.55-16.13,93.69,12.37,134.24,49.56,1,95.62-22.14,118.27-64.7,22.65-42.55,16.13-93.69-12.37-134.24Z"/>
  <path class="cls-5" d="M271,263.03c-48.98,7.62-90.32,38.41-105.24,84.25-14.92,45.84,.38,95.06,35.5,130.05,48.98-7.62,90.32-38.41,105.24-84.25,14.92-45.84-.38-95.06-35.5-130.05Z"/>
  <path class="cls-21" d="M274.48,257.34c-46.91,16.01-82.28,53.51-89.01,101.25-6.73,47.73,16.88,93.55,57.54,121.91,46.91-16.01,82.28-53.51,89.01-101.25,6.73-47.73-16.88-93.55-57.54-121.91Z"/>
  <path class="cls-20" d="M276.93,251.14c-43.42,23.91-71.74,66.99-70.07,115.17,1.66,48.18,32.87,89.2,77.84,110.07,43.42-23.91,71.74-66.99,70.07-115.17-1.66-48.18-32.87-89.2-77.84-110.07Z"/>
  <path class="cls-1" d="M278.26,244.6c-38.61,31.09-59.01,78.43-49.01,125.58,10,47.16,47.86,82.14,95.77,94.88,38.61-31.09,59.01-78.43,49.01-125.58-10-47.16-47.86-82.14-95.77-94.88Z"/>
  <path class="cls-11" d="M278.44,237.93c-32.62,37.32-44.5,87.48-26.46,132.19,18.04,44.71,61.4,72.58,110.79,76.81,32.62-37.32,44.5-87.48,26.46-132.19-18.04-44.71-61.4-72.58-110.79-76.81Z"/>
  <path class="cls-11" d="M277.46,231.34c-25.65,42.42-28.63,93.88-3.1,134.77,25.53,40.89,73.07,60.81,122.44,56.4,25.65-42.42,28.63-93.88,3.1-134.77-25.53-40.89-73.07-60.81-122.44-56.4Z"/>
  <path class="cls-6" d="M275.35,225.01c-17.89,46.23-11.89,97.43,20.35,133.27,32.24,35.84,82.52,47.2,130.38,34.28,17.89-46.23,11.89-97.43-20.35-133.27-32.24-35.84-82.52-47.2-130.38-34.28Z"/>
  <path class="cls-16" d="M272.17,219.15c-9.59,48.63,5.2,98.01,43.18,127.71,37.97,29.7,89.46,32.15,134.35,11.12,9.59-48.63-5.2-98.01-43.18-127.71-37.97-29.7-89.46-32.15-134.35-11.12Z"/>
  <path class="cls-15" d="M268.02,213.93c-1,49.56,22.14,95.62,64.7,118.27,42.55,22.65,93.69,16.13,134.24-12.37,1-49.56-22.14-95.62-64.7-118.27-42.55-22.65-93.69-16.13-134.24,12.37Z"/>
  <path class="cls-14" d="M263.03,209.5c7.62,48.98,38.41,90.32,84.25,105.24,45.84,14.92,95.06-.38,130.05-35.5-7.62-48.98-38.41-90.32-84.25-105.24-45.84-14.92-95.06,.38-130.05,35.5Z"/>
  <path class="cls-18" d="M257.34,206.02c16.01,46.91,53.51,82.28,101.25,89.01,47.73,6.73,93.55-16.88,121.91-57.54-16.01-46.91-53.51-82.28-101.25-89.01-47.73-6.73-93.55,16.88-121.91,57.54Z"/>
  <path class="cls-13" d="M251.14,203.57c23.91,43.42,66.99,71.74,115.17,70.07,48.18-1.66,89.2-32.87,110.07-77.84-23.91-43.42-66.99-71.74-115.17-70.07-48.18,1.66-89.2,32.87-110.07,77.84Z"/>
  <path class="cls-7" d="M244.6,202.24c31.09,38.61,78.43,59.01,125.58,49.01,47.16-10,82.14-47.86,94.88-95.77-31.09-38.61-78.43-59.01-125.58-49.01-47.16,10-82.14,47.86-94.88,95.77Z"/>
  <path class="cls-17" d="M237.93,202.06c37.32,32.62,87.48,44.5,132.19,26.46,44.71-18.04,72.58-61.4,76.81-110.79-37.32-32.62-87.48-44.5-132.19-26.46-44.71,18.04-72.58,61.4-76.81,110.79Z"/>
  <path class="cls-8" d="M231.34,203.04c42.42,25.65,93.88,28.63,134.77,3.1,40.89-25.53,60.81-73.07,56.4-122.44-42.42-25.65-93.88-28.63-134.77-3.1s-60.81,73.07-56.4,122.44Z"/>
  <path class="cls-9" d="M225.01,205.15c46.23,17.89,97.43,11.89,133.27-20.35,35.84-32.24,47.2-82.52,34.28-130.38-46.23-17.89-97.43-11.89-133.27,20.35-35.84,32.24-47.2,82.52-34.28,130.38Z"/>
  <path class="cls-10" d="M219.15,208.33c48.63,9.59,98.01-5.2,127.71-43.18,29.7-37.97,32.15-89.46,11.12-134.35-48.63-9.59-98.01,5.2-127.71,43.18-29.7,37.97-32.15,89.46-11.12,134.35Z"/>
  <path class="cls-12" d="M213.93,212.48c49.56,1,95.62-22.14,118.27-64.7,22.65-42.55,16.13-93.69-12.37-134.24-49.56-1-95.62,22.14-118.27,64.7-22.65,42.55-16.13,93.69,12.37,134.24Z"/>
  <path class="cls-4" d="M209.5,217.47c48.98-7.62,90.32-38.41,105.24-84.25,14.92-45.84-.38-95.06-35.5-130.05-48.98,7.62-90.32,38.41-105.24,84.25-14.92,45.84,.38,95.06,35.5,130.05Z"/>
  <path class="cls-2" d="M206.02,223.16c46.91-16.01,82.28-53.51,89.01-101.25,6.73-47.73-16.88-93.55-57.54-121.91-46.91,16.01-82.28,53.51-89.01,101.25-6.73,47.73,16.88,93.55,57.54,121.91Z"/>
</svg>