<?xml version="1.0" encoding="UTF-8"?>
<svg id="Layer_1" data-name="Layer 1" xmlns="http://www.w3.org/2000/svg" viewBox="0 0 477.23 477.23">
  <defs>
    <style>
      .cls-1 {
        stroke: #231f20;
        stroke-miterlimit: 10;
        stroke-width: 10px;
      }

      .cls-1, .cls-2 {
        fill: none;
      }

      .cls-2 {
        stroke: #000;
        stroke-width: 6px;
      }
    </style>
  </defs>
  <circle class="cls-1" cx="238.62" cy="238.62" r="233.62"/>
  <g>
    <path class="cls-2" d="M135.75,169.15v14.45h-30.15v97.9h-15.08v-97.9h-29.37v-14.45h74.59Z"/>
    <path class="cls-2" d="M249.8,286.47l-26.26-67.13-28.75,67.44-44.75-117.17h17.56l29.06,81.74,19.42-50.97-11.97-30.77h14.92l31.23,80.03,27.66-80.03h16.16l-44.28,116.85Z"/>
    <path class="cls-2" d="M309.01,196.81c5.18-8.81,12.14-15.82,20.9-21.06,8.75-5.23,18.31-7.85,28.67-7.85s19.78,2.62,28.59,7.85c8.8,5.23,15.82,12.25,21.06,21.06,5.23,8.81,7.85,18.34,7.85,28.59s-2.59,19.94-7.77,28.75c-5.18,8.81-12.2,15.77-21.06,20.9-8.86,5.13-18.41,7.69-28.67,7.69s-19.94-2.54-28.75-7.61-15.77-11.99-20.9-20.75c-5.13-8.75-7.69-18.41-7.69-28.98s2.59-19.78,7.77-28.59Zm13.36,50.04c3.73,6.53,8.83,11.71,15.31,15.54,6.47,3.83,13.54,5.75,21.21,5.75s14.69-1.89,21.06-5.67c6.37-3.78,11.39-8.96,15.07-15.54,3.68-6.57,5.52-13.75,5.52-21.52s-1.86-14.97-5.59-21.6c-3.73-6.63-8.81-11.86-15.23-15.69-6.42-3.83-13.47-5.75-21.13-5.75s-14.71,1.94-21.13,5.83-11.47,9.14-15.15,15.77c-3.68,6.63-5.52,13.83-5.52,21.6s1.86,14.77,5.59,21.29Z"/>
  </g>
</svg>