<?xml version="1.0" encoding="UTF-8"?>
<svg xmlns="http://www.w3.org/2000/svg" viewBox="0 0 470.38 447.48">
  <defs>
    <style>
      .cls-1 {
        stroke: #8dc63f;
      }

      .cls-1, .cls-2 {
        fill: none;
        stroke-miterlimit: 10;
        stroke-width: 4px;
      }

      .cls-2 {
        stroke: #231f20;
      }
    </style>
  </defs>
  <g id="Layer1">
    <polyline class="cls-2" points="164.11 148.78 235.83 4.52 306.71 149.2 466.08 172.83 350.39 284.95 377.16 443.82 234.78 368.43 91.96 442.99 119.65 284.28 4.61 171.49 175.62 160.96 235.35 40.82 295.18 161.31 428.81 181.12 331.8 275.13 354.25 408.33 234.87 345.13 115.12 407.64 138.34 274.57 41.89 180 189.95 178.04 235.66 86.12 280.82 178.31 382.37 193.36 308.65 264.81 325.71 366.04 234.98 318 143.98 365.51 161.62 264.38 88.32 192.51 203.25 195.8 235.56 130.8 267.5 195.99 339.3 206.64 287.18 257.15 299.24 328.73 235.09 294.77 170.74 328.36 183.22 256.85 131.39 206.03 216 209.48 235.48 170.3 254.73 209.59 298.02 216.01 266.59 246.47 273.86 289.62 235.19 269.14 196.4 289.39 203.92 246.28 172.67 215.65 224.62 219.14 235.42 197.42 246.09 219.21 270.1 222.76 252.67 239.65 256.7 263.58 235.26 252.22 213.75 263.45 217.92 239.55 200.59 222.56 230.67 227.23 235.38 217.75 240.03 227.25 250.5 228.8 242.9 236.17 244.66 246.6 235.31 241.65 225.93 246.54 227.75 236.12 222.01 230.5"/>
  </g>
  <g id="Layer2">
    <polyline class="cls-1" points="164.11 148.78 235.83 4.52 306.71 149.2 466.08 172.83 350.39 284.95 377.16 443.82 234.78 368.43 91.96 442.99 119.65 284.28 4.61 171.49 175.62 160.96 235.35 40.82 295.18 161.31 428.81 181.12 331.8 275.13 354.25 408.33 234.87 345.13 115.12 407.64 138.34 274.57 41.89 180 189.95 178.04 235.66 86.12 280.82 178.31 382.37 193.36 308.65 264.81 325.71 366.04 234.98 318 143.98 365.51 161.62 264.38 88.32 192.51 203.25 195.8 235.56 130.8 267.5 195.99 339.3 206.64 287.18 257.15 299.24 328.73 235.09 294.77 170.74 328.36 183.22 256.85 131.39 206.03 216 209.48 235.48 170.3 254.73 209.59 298.02 216.01 266.59 246.47 273.86 289.62 235.19 269.14 196.4 289.39 203.92 246.28 172.67 215.65 224.62 219.14 235.42 197.42 246.09 219.21 270.1 222.76 252.67 239.65 256.7 263.58 235.26 252.22 213.75 263.45 217.92 239.55 200.59 222.56 230.67 227.23 235.38 217.75 240.03 227.25 250.5 228.8 242.9 236.17 244.66 246.6 235.31 241.65 225.93 246.54 227.75 236.12 222.01 230.5"/>
  </g>
</svg>