<?xml version="1.0" encoding="utf-8"?>
<!-- Generator: Adobe Illustrator 26.4.1, SVG Export Plug-In . SVG Version: 6.00 Build 0)  -->
<svg version="1.1" xmlns="http://www.w3.org/2000/svg" xmlns:xlink="http://www.w3.org/1999/xlink" x="0px" y="0px"
	 viewBox="0 0 500 500" style="enable-background:new 0 0 500 500;" xml:space="preserve">
<style type="text/css">
	.st0{display:none;}
	.st1{display:inline;fill:none;stroke:#231F20;stroke-miterlimit:10;}
	.st2{fill:none;stroke:#A7A9AC;stroke-width:4;stroke-miterlimit:10;}
	.st3{fill:none;stroke:#231F20;stroke-width:4;stroke-miterlimit:10;}
</style>
<g id="background" class="st0">
	<polygon class="st1" points="370.11,41.97 129.89,41.97 9.79,250 129.89,458.03 370.11,458.03 490.21,250 	"/>
	<polygon class="st1" points="359.25,60.08 140.75,60.08 31.5,249.31 140.75,438.54 359.25,438.54 468.5,249.31 	"/>
	<polygon class="st1" points="348.73,78.31 151.27,78.31 52.55,249.31 151.27,420.31 348.73,420.31 447.45,249.31 	"/>
	<polygon class="st1" points="339.52,94.25 160.48,94.25 70.96,249.31 160.48,404.37 339.52,404.37 429.04,249.31 	"/>
	<polygon class="st1" points="328.17,113.91 171.83,113.91 93.65,249.31 171.83,384.71 328.17,384.71 406.35,249.31 	"/>
	<polygon class="st1" points="316.63,132.34 183.37,132.34 116.73,247.75 183.37,363.16 316.63,363.16 383.27,247.75 	"/>
	<polygon class="st1" points="307.69,151.15 192.31,151.15 134.62,248.25 192.31,345.34 307.69,345.34 365.38,248.25 	"/>
	<polygon class="st1" points="295.53,170.05 204.47,170.05 158.95,248.9 204.47,327.76 295.53,327.76 341.05,248.9 	"/>
	<polygon class="st1" points="285.47,186.57 214.53,186.57 179.05,248.01 214.53,309.46 285.47,309.46 320.95,248.01 	"/>
	<polygon class="st1" points="277.19,204.36 222.81,204.36 195.62,251.46 222.81,298.56 277.19,298.56 304.38,251.46 	"/>
	<polygon class="st1" points="269.08,216.95 230.92,216.95 211.84,250 230.92,283.05 269.08,283.05 288.16,250 	"/>
	<polygon class="st1" points="260.27,231.53 239.73,231.53 229.47,249.31 239.73,267.09 260.27,267.09 270.53,249.31 	"/>
</g>
<g id="Layer1">
	<polyline class="st2" points="129.89,41.97 370.11,41.97 490.21,250 370.11,458.03 129.89,458.03 9.79,250 119.44,60.08 
		359.25,60.08 468.5,249.31 359.25,438.54 140.75,438.54 31.5,249.31 130.23,78.31 348.73,78.31 447.45,249.31 348.73,420.31 
		151.27,420.31 52.55,249.31 142.07,94.25 339.52,94.25 429.04,249.31 339.52,404.37 160.48,404.37 70.96,249.31 149.13,113.91 
		328.17,113.91 406.35,249.31 329.28,382.8 171.83,384.71 93.65,249.31 161.19,132.34 316.63,132.34 383.27,247.75 316.63,363.16 
		183.37,363.16 116.73,247.75 172.5,151.15 307.69,151.15 365.38,248.25 307.69,345.34 192.31,345.34 134.62,248.25 181.08,170.05 
		295.53,170.05 341.05,248.9 295.53,327.76 204.47,327.76 158.95,248.9 194.93,186.57 285.47,186.57 320.95,248.01 285.47,309.46 
		214.53,309.46 179.05,247.75 204.26,204.36 277.19,204.36 304.38,251.46 277.19,298.56 222.81,298.56 195.62,251.46 215.54,216.95 
		269.08,216.95 288.16,250 269.08,283.05 230.92,283.05 211.84,250 222.51,231.53 260.27,231.53 270.53,249.31 260.27,267.09 
		239.73,267.09 229.47,249.31 	"/>
</g>
<g id="Layer2">
	<polyline class="st3" points="129.89,41.97 370.11,41.97 490.21,250 370.11,458.03 129.89,458.03 9.79,250 119.44,60.08 
		359.25,60.08 468.5,249.31 359.25,438.54 140.75,438.54 31.5,249.31 130.23,78.31 348.73,78.31 447.45,249.31 348.73,420.31 
		151.27,420.31 52.55,249.31 142.07,94.25 339.52,94.25 429.04,249.31 339.52,404.37 160.48,404.37 70.96,249.31 149.13,113.91 
		328.17,113.91 406.35,249.31 329.28,382.8 171.83,384.71 93.65,249.31 161.19,132.34 316.63,132.34 383.27,247.75 316.63,363.16 
		183.37,363.16 116.73,247.75 172.5,151.15 307.69,151.15 365.38,248.25 307.69,345.34 192.31,345.34 134.62,248.25 181.08,170.05 
		295.53,170.05 341.05,248.9 295.53,327.76 204.47,327.76 158.95,248.9 194.93,186.57 285.47,186.57 320.95,248.01 285.47,309.46 
		214.53,309.46 179.05,247.75 204.26,204.36 277.19,204.36 304.38,251.46 277.19,298.56 222.81,298.56 195.62,251.46 215.54,216.95 
		269.08,216.95 288.16,250 269.08,283.05 230.92,283.05 211.84,250 222.51,231.53 260.27,231.53 270.53,249.31 260.27,267.09 
		239.73,267.09 229.47,249.31 	"/>
</g>
</svg>
