<?xml version="1.0" encoding="UTF-8"?>
<svg xmlns="http://www.w3.org/2000/svg" viewBox="0 0 485.04 420.06">
  <defs>
    <style>
      .cls-1 {
        stroke: #231f20;
      }

      .cls-1, .cls-2 {
        fill: none;
        stroke-miterlimit: 10;
        stroke-width: 4px;
      }

      .cls-2 {
        stroke: #a7a9ac;
      }
    </style>
  </defs>
  <g id="Layer1">
    <polyline class="cls-2" points="122.42 2 362.63 2 482.73 210.03 362.63 418.06 122.42 418.06 2.31 210.03 111.96 20.11 351.77 20.11 461.02 209.34 351.77 398.57 133.27 398.57 24.02 209.34 122.75 38.34 341.25 38.34 439.98 209.34 341.25 380.34 143.79 380.34 45.07 209.34 134.59 54.28 332.04 54.28 421.57 209.34 332.04 364.4 153 364.4 63.48 209.34 141.65 73.94 320.7 73.94 398.87 209.34 321.8 342.83 164.35 344.74 86.17 209.34 153.71 92.37 309.16 92.37 375.79 207.78 309.16 323.19 175.89 323.19 109.25 207.78 165.02 111.18 300.21 111.18 357.91 208.28 300.21 305.37 184.83 305.37 127.14 208.28 173.6 130.08 288.05 130.08 333.58 208.93 288.05 287.79 196.99 287.79 151.47 208.93 187.45 146.6 278 146.6 313.47 208.04 278 269.49 207.05 269.49 171.57 207.78 196.78 164.39 269.71 164.39 296.91 211.49 269.71 258.59 215.33 258.59 188.14 211.49 208.06 176.98 261.6 176.98 280.68 210.03 261.6 243.08 223.44 243.08 204.36 210.03 215.03 191.56 252.79 191.56 263.05 209.34 252.79 227.12 232.26 227.12 221.99 209.34"/>
  </g>
  <g id="Layer2">
    <polyline class="cls-1" points="122.42 2 362.63 2 482.73 210.03 362.63 418.06 122.42 418.06 2.31 210.03 111.96 20.11 351.77 20.11 461.02 209.34 351.77 398.57 133.27 398.57 24.02 209.34 122.75 38.34 341.25 38.34 439.98 209.34 341.25 380.34 143.79 380.34 45.07 209.34 134.59 54.28 332.04 54.28 421.57 209.34 332.04 364.4 153 364.4 63.48 209.34 141.65 73.94 320.7 73.94 398.87 209.34 321.8 342.83 164.35 344.74 86.17 209.34 153.71 92.37 309.16 92.37 375.79 207.78 309.16 323.19 175.89 323.19 109.25 207.78 165.02 111.18 300.21 111.18 357.91 208.28 300.21 305.37 184.83 305.37 127.14 208.28 173.6 130.08 288.05 130.08 333.58 208.93 288.05 287.79 196.99 287.79 151.47 208.93 187.45 146.6 278 146.6 313.47 208.04 278 269.49 207.05 269.49 171.57 207.78 196.78 164.39 269.71 164.39 296.91 211.49 269.71 258.59 215.33 258.59 188.14 211.49 208.06 176.98 261.6 176.98 280.68 210.03 261.6 243.08 223.44 243.08 204.36 210.03 215.03 191.56 252.79 191.56 263.05 209.34 252.79 227.12 232.26 227.12 221.99 209.34"/>
  </g>
</svg>